<mxfile host="65bd71144e" scale="1" border="0" disableSvgWarning="true">
    <diagram id="7Nfhjb_h99Bgx3w2r9ul" name="Page-1">
        <mxGraphModel dx="922" dy="617" grid="1" gridSize="10" guides="1" tooltips="1" connect="1" arrows="1" fold="1" page="1" pageScale="1" pageWidth="827" pageHeight="1169" background="#808080" math="0" shadow="1">
            <root>
                <mxCell id="0"/>
                <mxCell id="1" parent="0"/>
                <mxCell id="2" value="CommandQueue" style="rounded=0;whiteSpace=wrap;html=1;" parent="1" vertex="1">
                    <mxGeometry x="414" y="40" width="120" height="60" as="geometry"/>
                </mxCell>
                <mxCell id="3" value="Contexts" style="rounded=0;whiteSpace=wrap;html=1;" parent="1" vertex="1">
                    <mxGeometry x="200" y="150" width="120" height="60" as="geometry"/>
                </mxCell>
                <mxCell id="4" value="Simulation" style="rounded=0;whiteSpace=wrap;html=1;" parent="1" vertex="1">
                    <mxGeometry x="200" y="250" width="120" height="60" as="geometry"/>
                </mxCell>
                <mxCell id="5" value="World" style="rounded=0;whiteSpace=wrap;html=1;" parent="1" vertex="1">
                    <mxGeometry x="200" y="340" width="120" height="60" as="geometry"/>
                </mxCell>
                <mxCell id="7" value="NetworkCommandQueue" style="rounded=0;whiteSpace=wrap;html=1;" parent="1" vertex="1">
                    <mxGeometry x="400" y="260" width="180" height="70" as="geometry"/>
                </mxCell>
                <mxCell id="9" value="Extends" style="endArrow=block;endSize=16;endFill=0;html=1;exitX=0.5;exitY=0;exitDx=0;exitDy=0;" parent="1" source="7" target="2" edge="1">
                    <mxGeometry width="160" relative="1" as="geometry">
                        <mxPoint x="430" y="310" as="sourcePoint"/>
                        <mxPoint x="590" y="310" as="targetPoint"/>
                    </mxGeometry>
                </mxCell>
                <mxCell id="10" value="Entity" style="html=1;" vertex="1" parent="1">
                    <mxGeometry x="1060" y="180" width="110" height="50" as="geometry"/>
                </mxCell>
                <mxCell id="11" value="«interface»&lt;br&gt;&lt;b&gt;IEntity&lt;/b&gt;" style="html=1;" vertex="1" parent="1">
                    <mxGeometry x="1320" y="140" width="110" height="50" as="geometry"/>
                </mxCell>
                <mxCell id="14" value="" style="endArrow=block;dashed=1;endFill=0;endSize=12;html=1;exitX=0;exitY=0.5;exitDx=0;exitDy=0;" edge="1" parent="1" source="11" target="10">
                    <mxGeometry width="160" relative="1" as="geometry">
                        <mxPoint x="1040" y="290" as="sourcePoint"/>
                        <mxPoint x="1200" y="290" as="targetPoint"/>
                    </mxGeometry>
                </mxCell>
                <mxCell id="15" value="«interface»&lt;br&gt;&lt;b&gt;IAERC&lt;/b&gt;" style="html=1;" vertex="1" parent="1">
                    <mxGeometry x="1320" y="220" width="110" height="50" as="geometry"/>
                </mxCell>
                <mxCell id="16" value="" style="endArrow=block;dashed=1;endFill=0;endSize=12;html=1;exitX=0;exitY=0.5;exitDx=0;exitDy=0;entryX=1;entryY=0.75;entryDx=0;entryDy=0;" edge="1" parent="1" source="15" target="10">
                    <mxGeometry width="160" relative="1" as="geometry">
                        <mxPoint x="1320" y="215" as="sourcePoint"/>
                        <mxPoint x="1180" y="215" as="targetPoint"/>
                    </mxGeometry>
                </mxCell>
                <mxCell id="17" value="GameEntity" style="html=1;" vertex="1" parent="1">
                    <mxGeometry x="790" y="30" width="110" height="50" as="geometry"/>
                </mxCell>
                <mxCell id="18" value="ActorEntity" style="html=1;" vertex="1" parent="1">
                    <mxGeometry x="900" y="30" width="110" height="50" as="geometry"/>
                </mxCell>
                <mxCell id="19" value="InputEntity" style="html=1;" vertex="1" parent="1">
                    <mxGeometry x="1010" y="30" width="110" height="50" as="geometry"/>
                </mxCell>
                <mxCell id="20" value="ConfigEntity" style="html=1;" vertex="1" parent="1">
                    <mxGeometry x="1120" y="30" width="110" height="50" as="geometry"/>
                </mxCell>
                <mxCell id="21" value="DebugEntiy" style="html=1;" vertex="1" parent="1">
                    <mxGeometry x="1230" y="30" width="110" height="50" as="geometry"/>
                </mxCell>
                <mxCell id="22" value="SnapshotEntity" style="html=1;" vertex="1" parent="1">
                    <mxGeometry x="1340" y="30" width="110" height="50" as="geometry"/>
                </mxCell>
            </root>
        </mxGraphModel>
    </diagram>
</mxfile>